<svg xmlns="http://www.w3.org/2000/svg" width="24" height="24" viewBox="0 0 24 24" fill="none">
  <path d="M12.5 9.7246L5.15 17.0746C4.9 17.3246 4.60417 17.4454 4.2625 17.4371C3.92083 17.4288 3.625 17.2996 3.375 17.0496C3.125 16.7996 3 16.5038 3 16.1621C3 15.8204 3.125 15.5246 3.375 15.2746L11.075 7.5996C11.275 7.3996 11.5 7.2496 11.75 7.1496C12 7.0496 12.25 6.9996 12.5 6.9996C12.75 6.9996 13 7.0496 13.25 7.1496C13.5 7.2496 13.725 7.3996 13.925 7.5996L21.625 15.2996C21.875 15.5496 21.9958 15.8413 21.9875 16.1746C21.9792 16.5079 21.85 16.7996 21.6 17.0496C21.35 17.2996 21.0542 17.4246 20.7125 17.4246C20.3708 17.4246 20.075 17.2996 19.825 17.0496L12.5 9.7246Z" fill="#0031E2"/>
</svg>
