<svg width="24" height="24" viewBox="0 0 24 24" fill="none" xmlns="http://www.w3.org/2000/svg">
<path d="M12.4879 14.275L19.8379 6.925C20.0879 6.675 20.3796 6.55417 20.7129 6.5625C21.0462 6.57083 21.3379 6.7 21.5879 6.95C21.8379 7.2 21.9629 7.49167 21.9629 7.825C21.9629 8.15833 21.8379 8.45 21.5879 8.7L13.9129 16.4C13.7129 16.6 13.4879 16.75 13.2379 16.85C12.9879 16.95 12.7379 17 12.4879 17C12.2379 17 11.9879 16.95 11.7379 16.85C11.4879 16.75 11.2629 16.6 11.0629 16.4L3.3629 8.7C3.1129 8.45 2.99207 8.15417 3.0004 7.8125C3.00874 7.47083 3.1379 7.175 3.3879 6.925C3.6379 6.675 3.92957 6.55 4.2629 6.55C4.59624 6.55 4.8879 6.675 5.1379 6.925L12.4879 14.275Z" fill="#1F2937"/>
</svg>
