<svg width="685" height="896" viewBox="0 0 685 896" fill="none" xmlns="http://www.w3.org/2000/svg">
<g clip-path="url(#clip0_3_1752)">
<rect width="685" height="896" fill="#0031E2"/>
<path d="M600.94 -404.871C656.483 -398.08 723.85 -371.181 768.243 -294.292C820.435 -203.892 800.258 -108.277 630.062 -10.6287C473.333 79.2935 355.763 62.7091 297.448 -38.2955C254.586 -112.534 265.499 -179.303 283.207 -223.079L600.94 -404.871ZM846.43 -562.527L766.247 -701.408L-60.0706 -227.315L7.06464 -111.034L98.3197 -140.028C73.8656 -73.893 65.8689 9.52358 117.332 98.6602C210.782 260.52 422.572 310.111 714.29 142.74C1026.94 -36.6389 1056.81 -216.475 973.051 -361.543C932.041 -436.323 855.354 -487.414 759.29 -503.959L846.43 -562.527Z" fill="url(#paint0_linear_3_1752)"/>
<path d="M337.459 405.543C329.357 431.237 322.315 449.442 322.315 449.442C322.315 449.442 315.316 431.237 307.214 405.543H293.714C302.671 434.852 313.694 460.818 313.694 460.818H331.001C331.001 460.818 342.1 434.809 350.959 405.543H337.459Z" fill="white"/>
<path d="M391.08 448.345H367.347V405.554H354.918V460.818H391.08V448.345Z" fill="white"/>
<path d="M435.019 443.917C432.531 446.511 428.323 449.116 421.736 449.116C413.958 449.116 408.55 445.328 408.55 433.919C408.55 423.4 413.958 417.994 422.612 417.994C428.983 417.994 432.867 420.48 435.03 422.64L435.019 443.917ZM436.101 460.829H448V405.543H438.059L436.555 410.97C433.18 407.822 428.107 405 420.438 405C406.613 405 395.558 414.205 395.558 433.723C395.558 454.642 406.04 461.361 418.458 461.361C424.788 461.468 430.911 459.097 435.528 454.75L436.101 460.829Z" fill="white"/>
<path d="M276.429 443.917C273.941 446.511 269.722 449.116 263.134 449.116C255.389 449.116 249.981 445.328 249.981 433.94C249.981 423.454 255.389 418.026 264.043 418.026C270.404 418.026 274.298 420.512 276.461 422.673L276.429 443.917ZM277.51 460.829H289.409V405.543H279.447L277.943 410.97C274.59 407.822 269.517 405 261.88 405C248.012 405 237 414.205 237 433.723C237 454.642 247.471 461.361 259.9 461.361C266.227 461.47 272.347 459.098 276.959 454.75L277.51 460.829Z" fill="white"/>
<path d="M243.864 485.365L241.4 481.013H240.344V485.365H238.104V474.197H242.296C243.16 474.197 243.896 474.351 244.504 474.661C245.112 474.959 245.565 475.37 245.864 475.893C246.173 476.405 246.328 476.981 246.328 477.621C246.328 478.357 246.115 479.023 245.688 479.621C245.261 480.207 244.627 480.613 243.784 480.837L246.456 485.365H243.864ZM240.344 479.333H242.216C242.824 479.333 243.277 479.189 243.576 478.901C243.875 478.602 244.024 478.191 244.024 477.669C244.024 477.157 243.875 476.762 243.576 476.485C243.277 476.197 242.824 476.053 242.216 476.053H240.344V479.333ZM256.594 480.741C256.594 481.061 256.573 481.349 256.53 481.605H250.05C250.103 482.245 250.327 482.746 250.722 483.109C251.117 483.471 251.602 483.653 252.178 483.653C253.01 483.653 253.602 483.295 253.954 482.581H256.37C256.114 483.434 255.623 484.138 254.898 484.693C254.173 485.237 253.282 485.509 252.226 485.509C251.373 485.509 250.605 485.322 249.922 484.949C249.25 484.565 248.722 484.026 248.338 483.333C247.965 482.639 247.778 481.839 247.778 480.933C247.778 480.015 247.965 479.21 248.338 478.517C248.711 477.823 249.234 477.29 249.906 476.917C250.578 476.543 251.351 476.357 252.226 476.357C253.069 476.357 253.821 476.538 254.482 476.901C255.154 477.263 255.671 477.781 256.034 478.453C256.407 479.114 256.594 479.877 256.594 480.741ZM254.274 480.101C254.263 479.525 254.055 479.066 253.65 478.725C253.245 478.373 252.749 478.197 252.162 478.197C251.607 478.197 251.138 478.367 250.754 478.709C250.381 479.039 250.151 479.503 250.066 480.101H254.274ZM261.621 485.509C260.896 485.509 260.245 485.381 259.669 485.125C259.093 484.858 258.634 484.501 258.293 484.053C257.962 483.605 257.781 483.109 257.749 482.565H260.005C260.048 482.906 260.213 483.189 260.501 483.413C260.8 483.637 261.168 483.749 261.605 483.749C262.032 483.749 262.362 483.663 262.597 483.493C262.842 483.322 262.965 483.103 262.965 482.837C262.965 482.549 262.816 482.335 262.517 482.197C262.229 482.047 261.765 481.887 261.125 481.717C260.464 481.557 259.92 481.391 259.493 481.221C259.077 481.05 258.714 480.789 258.405 480.437C258.106 480.085 257.957 479.61 257.957 479.013C257.957 478.522 258.096 478.074 258.373 477.669C258.661 477.263 259.066 476.943 259.589 476.709C260.122 476.474 260.746 476.357 261.461 476.357C262.517 476.357 263.36 476.623 263.989 477.157C264.618 477.679 264.965 478.389 265.029 479.285H262.885C262.853 478.933 262.704 478.655 262.437 478.453C262.181 478.239 261.834 478.133 261.397 478.133C260.992 478.133 260.677 478.207 260.453 478.357C260.24 478.506 260.133 478.714 260.133 478.981C260.133 479.279 260.282 479.509 260.581 479.669C260.88 479.818 261.344 479.973 261.973 480.133C262.613 480.293 263.141 480.458 263.557 480.629C263.973 480.799 264.33 481.066 264.629 481.429C264.938 481.781 265.098 482.25 265.109 482.837C265.109 483.349 264.965 483.807 264.677 484.213C264.4 484.618 263.994 484.938 263.461 485.173C262.938 485.397 262.325 485.509 261.621 485.509ZM269.188 477.781C269.476 477.375 269.87 477.039 270.372 476.773C270.884 476.495 271.465 476.357 272.116 476.357C272.873 476.357 273.556 476.543 274.164 476.917C274.782 477.29 275.268 477.823 275.62 478.517C275.982 479.199 276.164 479.994 276.164 480.901C276.164 481.807 275.982 482.613 275.62 483.317C275.268 484.01 274.782 484.549 274.164 484.933C273.556 485.317 272.873 485.509 272.116 485.509C271.465 485.509 270.889 485.375 270.388 485.109C269.897 484.842 269.497 484.506 269.188 484.101V489.589H266.948V476.501H269.188V477.781ZM273.876 480.901C273.876 480.367 273.764 479.909 273.54 479.525C273.326 479.13 273.038 478.831 272.676 478.629C272.324 478.426 271.94 478.325 271.524 478.325C271.118 478.325 270.734 478.431 270.372 478.645C270.02 478.847 269.732 479.146 269.508 479.541C269.294 479.935 269.188 480.399 269.188 480.933C269.188 481.466 269.294 481.93 269.508 482.325C269.732 482.719 270.02 483.023 270.372 483.237C270.734 483.439 271.118 483.541 271.524 483.541C271.94 483.541 272.324 483.434 272.676 483.221C273.038 483.007 273.326 482.703 273.54 482.309C273.764 481.914 273.876 481.445 273.876 480.901ZM277.215 480.901C277.215 480.005 277.391 479.21 277.743 478.517C278.106 477.823 278.592 477.29 279.2 476.917C279.818 476.543 280.506 476.357 281.264 476.357C281.925 476.357 282.501 476.49 282.992 476.757C283.493 477.023 283.893 477.359 284.192 477.765V476.501H286.448V485.365H284.192V484.069C283.904 484.485 283.504 484.831 282.992 485.109C282.49 485.375 281.909 485.509 281.248 485.509C280.501 485.509 279.818 485.317 279.2 484.933C278.592 484.549 278.106 484.01 277.743 483.317C277.391 482.613 277.215 481.807 277.215 480.901ZM284.192 480.933C284.192 480.389 284.085 479.925 283.872 479.541C283.658 479.146 283.37 478.847 283.008 478.645C282.645 478.431 282.256 478.325 281.84 478.325C281.424 478.325 281.04 478.426 280.688 478.629C280.336 478.831 280.048 479.13 279.824 479.525C279.61 479.909 279.504 480.367 279.504 480.901C279.504 481.434 279.61 481.903 279.824 482.309C280.048 482.703 280.336 483.007 280.688 483.221C281.05 483.434 281.434 483.541 281.84 483.541C282.256 483.541 282.645 483.439 283.008 483.237C283.37 483.023 283.658 482.725 283.872 482.341C284.085 481.946 284.192 481.477 284.192 480.933ZM290.875 473.525V485.365H288.635V473.525H290.875ZM292.512 480.901C292.512 480.005 292.688 479.21 293.04 478.517C293.403 477.823 293.894 477.29 294.512 476.917C295.131 476.543 295.819 476.357 296.576 476.357C297.152 476.357 297.702 476.485 298.224 476.741C298.747 476.986 299.163 477.317 299.472 477.733V473.525H301.744V485.365H299.472V484.053C299.195 484.49 298.806 484.842 298.304 485.109C297.803 485.375 297.222 485.509 296.56 485.509C295.814 485.509 295.131 485.317 294.512 484.933C293.894 484.549 293.403 484.01 293.04 483.317C292.688 482.613 292.512 481.807 292.512 480.901ZM299.488 480.933C299.488 480.389 299.382 479.925 299.168 479.541C298.955 479.146 298.667 478.847 298.304 478.645C297.942 478.431 297.552 478.325 297.136 478.325C296.72 478.325 296.336 478.426 295.984 478.629C295.632 478.831 295.344 479.13 295.12 479.525C294.907 479.909 294.8 480.367 294.8 480.901C294.8 481.434 294.907 481.903 295.12 482.309C295.344 482.703 295.632 483.007 295.984 483.221C296.347 483.434 296.731 483.541 297.136 483.541C297.552 483.541 297.942 483.439 298.304 483.237C298.667 483.023 298.955 482.725 299.168 482.341C299.382 481.946 299.488 481.477 299.488 480.933ZM303.356 480.901C303.356 480.005 303.532 479.21 303.884 478.517C304.247 477.823 304.732 477.29 305.34 476.917C305.959 476.543 306.647 476.357 307.404 476.357C308.065 476.357 308.641 476.49 309.132 476.757C309.633 477.023 310.033 477.359 310.332 477.765V476.501H312.588V485.365H310.332V484.069C310.044 484.485 309.644 484.831 309.132 485.109C308.631 485.375 308.049 485.509 307.388 485.509C306.641 485.509 305.959 485.317 305.34 484.933C304.732 484.549 304.247 484.01 303.884 483.317C303.532 482.613 303.356 481.807 303.356 480.901ZM310.332 480.933C310.332 480.389 310.225 479.925 310.012 479.541C309.799 479.146 309.511 478.847 309.148 478.645C308.785 478.431 308.396 478.325 307.98 478.325C307.564 478.325 307.18 478.426 306.828 478.629C306.476 478.831 306.188 479.13 305.964 479.525C305.751 479.909 305.644 480.367 305.644 480.901C305.644 481.434 305.751 481.903 305.964 482.309C306.188 482.703 306.476 483.007 306.828 483.221C307.191 483.434 307.575 483.541 307.98 483.541C308.396 483.541 308.785 483.439 309.148 483.237C309.511 483.023 309.799 482.725 310.012 482.341C310.225 481.946 310.332 481.477 310.332 480.933ZM325.784 476.373C326.872 476.373 327.747 476.709 328.408 477.381C329.08 478.042 329.416 478.97 329.416 480.165V485.365H327.176V480.469C327.176 479.775 327 479.247 326.648 478.885C326.296 478.511 325.816 478.325 325.208 478.325C324.6 478.325 324.115 478.511 323.752 478.885C323.4 479.247 323.224 479.775 323.224 480.469V485.365H320.984V480.469C320.984 479.775 320.808 479.247 320.456 478.885C320.104 478.511 319.624 478.325 319.016 478.325C318.397 478.325 317.907 478.511 317.544 478.885C317.192 479.247 317.016 479.775 317.016 480.469V485.365H314.776V476.501H317.016V477.573C317.304 477.199 317.672 476.906 318.12 476.693C318.579 476.479 319.08 476.373 319.624 476.373C320.317 476.373 320.936 476.522 321.48 476.821C322.024 477.109 322.445 477.525 322.744 478.069C323.032 477.557 323.448 477.146 323.992 476.837C324.547 476.527 325.144 476.373 325.784 476.373ZM335.478 485.509C334.624 485.509 333.856 485.322 333.174 484.949C332.491 484.565 331.952 484.026 331.558 483.333C331.174 482.639 330.982 481.839 330.982 480.933C330.982 480.026 331.179 479.226 331.574 478.533C331.979 477.839 332.528 477.306 333.222 476.933C333.915 476.549 334.688 476.357 335.542 476.357C336.395 476.357 337.168 476.549 337.862 476.933C338.555 477.306 339.099 477.839 339.494 478.533C339.899 479.226 340.102 480.026 340.102 480.933C340.102 481.839 339.894 482.639 339.477 483.333C339.072 484.026 338.518 484.565 337.814 484.949C337.12 485.322 336.342 485.509 335.478 485.509ZM335.478 483.557C335.883 483.557 336.262 483.461 336.614 483.269C336.976 483.066 337.264 482.767 337.478 482.373C337.691 481.978 337.798 481.498 337.798 480.933C337.798 480.09 337.574 479.445 337.126 478.997C336.688 478.538 336.15 478.309 335.51 478.309C334.87 478.309 334.331 478.538 333.894 478.997C333.467 479.445 333.254 480.09 333.254 480.933C333.254 481.775 333.462 482.426 333.878 482.885C334.304 483.333 334.838 483.557 335.478 483.557ZM345.137 485.509C344.411 485.509 343.761 485.381 343.185 485.125C342.609 484.858 342.15 484.501 341.809 484.053C341.478 483.605 341.297 483.109 341.265 482.565H343.521C343.563 482.906 343.729 483.189 344.017 483.413C344.315 483.637 344.683 483.749 345.121 483.749C345.547 483.749 345.878 483.663 346.113 483.493C346.358 483.322 346.481 483.103 346.481 482.837C346.481 482.549 346.331 482.335 346.033 482.197C345.745 482.047 345.281 481.887 344.641 481.717C343.979 481.557 343.435 481.391 343.009 481.221C342.593 481.05 342.23 480.789 341.921 480.437C341.622 480.085 341.473 479.61 341.473 479.013C341.473 478.522 341.611 478.074 341.889 477.669C342.177 477.263 342.582 476.943 343.105 476.709C343.638 476.474 344.262 476.357 344.977 476.357C346.033 476.357 346.875 476.623 347.505 477.157C348.134 477.679 348.481 478.389 348.545 479.285H346.401C346.369 478.933 346.219 478.655 345.953 478.453C345.697 478.239 345.35 478.133 344.913 478.133C344.507 478.133 344.193 478.207 343.969 478.357C343.755 478.506 343.649 478.714 343.649 478.981C343.649 479.279 343.798 479.509 344.097 479.669C344.395 479.818 344.859 479.973 345.489 480.133C346.129 480.293 346.657 480.458 347.073 480.629C347.489 480.799 347.846 481.066 348.145 481.429C348.454 481.781 348.614 482.25 348.625 482.837C348.625 483.349 348.481 483.807 348.193 484.213C347.915 484.618 347.51 484.938 346.977 485.173C346.454 485.397 345.841 485.509 345.137 485.509ZM356.884 478.341V482.629C356.884 482.927 356.953 483.146 357.092 483.285C357.241 483.413 357.487 483.477 357.828 483.477H358.868V485.365H357.46C355.572 485.365 354.628 484.447 354.628 482.613V478.341H353.572V476.501H354.628V474.309H356.884V476.501H358.868V478.341H356.884ZM368.847 476.501V485.365H366.591V484.245C366.303 484.629 365.924 484.933 365.455 485.157C364.996 485.37 364.495 485.477 363.951 485.477C363.258 485.477 362.644 485.333 362.111 485.045C361.578 484.746 361.156 484.314 360.847 483.749C360.548 483.173 360.399 482.49 360.399 481.701V476.501H362.639V481.381C362.639 482.085 362.815 482.629 363.167 483.013C363.519 483.386 363.999 483.573 364.607 483.573C365.226 483.573 365.711 483.386 366.063 483.013C366.415 482.629 366.591 482.085 366.591 481.381V476.501H368.847ZM383.11 480.741C383.11 481.061 383.088 481.349 383.046 481.605H376.566C376.619 482.245 376.843 482.746 377.238 483.109C377.632 483.471 378.118 483.653 378.694 483.653C379.526 483.653 380.118 483.295 380.47 482.581H382.886C382.63 483.434 382.139 484.138 381.414 484.693C380.688 485.237 379.798 485.509 378.742 485.509C377.888 485.509 377.12 485.322 376.438 484.949C375.766 484.565 375.238 484.026 374.854 483.333C374.48 482.639 374.294 481.839 374.294 480.933C374.294 480.015 374.48 479.21 374.854 478.517C375.227 477.823 375.75 477.29 376.422 476.917C377.094 476.543 377.867 476.357 378.742 476.357C379.584 476.357 380.336 476.538 380.998 476.901C381.67 477.263 382.187 477.781 382.55 478.453C382.923 479.114 383.11 479.877 383.11 480.741ZM380.79 480.101C380.779 479.525 380.571 479.066 380.166 478.725C379.76 478.373 379.264 478.197 378.678 478.197C378.123 478.197 377.654 478.367 377.27 478.709C376.896 479.039 376.667 479.503 376.582 480.101H380.79ZM395.753 476.373C396.841 476.373 397.715 476.709 398.377 477.381C399.049 478.042 399.385 478.97 399.385 480.165V485.365H397.145V480.469C397.145 479.775 396.969 479.247 396.617 478.885C396.265 478.511 395.785 478.325 395.177 478.325C394.569 478.325 394.083 478.511 393.721 478.885C393.369 479.247 393.193 479.775 393.193 480.469V485.365H390.953V480.469C390.953 479.775 390.777 479.247 390.425 478.885C390.073 478.511 389.593 478.325 388.985 478.325C388.366 478.325 387.875 478.511 387.513 478.885C387.161 479.247 386.985 479.775 386.985 480.469V485.365H384.745V476.501H386.985V477.573C387.273 477.199 387.641 476.906 388.089 476.693C388.547 476.479 389.049 476.373 389.593 476.373C390.286 476.373 390.905 476.522 391.449 476.821C391.993 477.109 392.414 477.525 392.713 478.069C393.001 477.557 393.417 477.146 393.961 476.837C394.515 476.527 395.113 476.373 395.753 476.373ZM403.75 477.781C404.038 477.375 404.433 477.039 404.934 476.773C405.446 476.495 406.028 476.357 406.678 476.357C407.436 476.357 408.118 476.543 408.726 476.917C409.345 477.29 409.83 477.823 410.182 478.517C410.545 479.199 410.726 479.994 410.726 480.901C410.726 481.807 410.545 482.613 410.182 483.317C409.83 484.01 409.345 484.549 408.726 484.933C408.118 485.317 407.436 485.509 406.678 485.509C406.028 485.509 405.452 485.375 404.95 485.109C404.46 484.842 404.06 484.506 403.75 484.101V489.589H401.51V476.501H403.75V477.781ZM408.438 480.901C408.438 480.367 408.326 479.909 408.102 479.525C407.889 479.13 407.601 478.831 407.238 478.629C406.886 478.426 406.502 478.325 406.086 478.325C405.681 478.325 405.297 478.431 404.934 478.645C404.582 478.847 404.294 479.146 404.07 479.541C403.857 479.935 403.75 480.399 403.75 480.933C403.75 481.466 403.857 481.93 404.07 482.325C404.294 482.719 404.582 483.023 404.934 483.237C405.297 483.439 405.681 483.541 406.086 483.541C406.502 483.541 406.886 483.434 407.238 483.221C407.601 483.007 407.889 482.703 408.102 482.309C408.326 481.914 408.438 481.445 408.438 480.901ZM414.594 477.877C414.882 477.407 415.255 477.039 415.714 476.773C416.183 476.506 416.717 476.373 417.314 476.373V478.725H416.722C416.018 478.725 415.485 478.89 415.122 479.221C414.77 479.551 414.594 480.127 414.594 480.949V485.365H412.354V476.501H414.594V477.877ZM427.063 480.741C427.063 481.061 427.041 481.349 426.999 481.605H420.519C420.572 482.245 420.796 482.746 421.191 483.109C421.585 483.471 422.071 483.653 422.647 483.653C423.479 483.653 424.071 483.295 424.423 482.581H426.839C426.583 483.434 426.092 484.138 425.367 484.693C424.641 485.237 423.751 485.509 422.695 485.509C421.841 485.509 421.073 485.322 420.391 484.949C419.719 484.565 419.191 484.026 418.807 483.333C418.433 482.639 418.247 481.839 418.247 480.933C418.247 480.015 418.433 479.21 418.807 478.517C419.18 477.823 419.703 477.29 420.375 476.917C421.047 476.543 421.82 476.357 422.695 476.357C423.537 476.357 424.289 476.538 424.951 476.901C425.623 477.263 426.14 477.781 426.503 478.453C426.876 479.114 427.063 479.877 427.063 480.741ZM424.743 480.101C424.732 479.525 424.524 479.066 424.119 478.725C423.713 478.373 423.217 478.197 422.631 478.197C422.076 478.197 421.607 478.367 421.223 478.709C420.849 479.039 420.62 479.503 420.535 480.101H424.743ZM432.09 485.509C431.364 485.509 430.714 485.381 430.138 485.125C429.562 484.858 429.103 484.501 428.762 484.053C428.431 483.605 428.25 483.109 428.218 482.565H430.474C430.516 482.906 430.682 483.189 430.97 483.413C431.268 483.637 431.636 483.749 432.074 483.749C432.5 483.749 432.831 483.663 433.066 483.493C433.311 483.322 433.434 483.103 433.434 482.837C433.434 482.549 433.284 482.335 432.986 482.197C432.698 482.047 432.234 481.887 431.594 481.717C430.932 481.557 430.388 481.391 429.962 481.221C429.546 481.05 429.183 480.789 428.874 480.437C428.575 480.085 428.426 479.61 428.426 479.013C428.426 478.522 428.564 478.074 428.842 477.669C429.13 477.263 429.535 476.943 430.058 476.709C430.591 476.474 431.215 476.357 431.93 476.357C432.986 476.357 433.828 476.623 434.458 477.157C435.087 477.679 435.434 478.389 435.498 479.285H433.354C433.322 478.933 433.172 478.655 432.906 478.453C432.65 478.239 432.303 478.133 431.866 478.133C431.46 478.133 431.146 478.207 430.922 478.357C430.708 478.506 430.602 478.714 430.602 478.981C430.602 479.279 430.751 479.509 431.05 479.669C431.348 479.818 431.812 479.973 432.442 480.133C433.082 480.293 433.61 480.458 434.026 480.629C434.442 480.799 434.799 481.066 435.098 481.429C435.407 481.781 435.567 482.25 435.578 482.837C435.578 483.349 435.434 483.807 435.146 484.213C434.868 484.618 434.463 484.938 433.93 485.173C433.407 485.397 432.794 485.509 432.09 485.509ZM436.84 480.901C436.84 480.005 437.016 479.21 437.368 478.517C437.731 477.823 438.217 477.29 438.825 476.917C439.443 476.543 440.131 476.357 440.889 476.357C441.55 476.357 442.126 476.49 442.617 476.757C443.118 477.023 443.518 477.359 443.817 477.765V476.501H446.073V485.365H443.817V484.069C443.529 484.485 443.129 484.831 442.617 485.109C442.115 485.375 441.534 485.509 440.873 485.509C440.126 485.509 439.443 485.317 438.825 484.933C438.217 484.549 437.731 484.01 437.368 483.317C437.016 482.613 436.84 481.807 436.84 480.901ZM443.817 480.933C443.817 480.389 443.71 479.925 443.497 479.541C443.283 479.146 442.995 478.847 442.633 478.645C442.27 478.431 441.881 478.325 441.465 478.325C441.049 478.325 440.665 478.426 440.312 478.629C439.961 478.831 439.673 479.13 439.449 479.525C439.235 479.909 439.129 480.367 439.129 480.901C439.129 481.434 439.235 481.903 439.449 482.309C439.673 482.703 439.961 483.007 440.312 483.221C440.675 483.434 441.059 483.541 441.465 483.541C441.881 483.541 442.27 483.439 442.633 483.237C442.995 483.023 443.283 482.725 443.497 482.341C443.71 481.946 443.817 481.477 443.817 480.933Z" fill="white"/>
<path d="M27.1296 940.205C53.0987 899.549 106.666 844.944 211.93 792.182C335.689 730.15 442.243 717.102 502.751 808.087C558.471 891.874 500.888 978.56 362.61 1047.87C260.975 1098.81 185.541 1110.14 139.493 1110.21L27.1296 940.205ZM-80.0226 813.735L-270.155 909.036L23.6157 1350.78L182.808 1270.99L177.994 1215.58C248.304 1213.87 344.366 1195.79 466.397 1134.63C687.987 1023.56 815.033 861.808 711.322 705.857C600.17 538.718 397.149 568.893 198.547 668.44C96.8706 718.245 11.6844 786.21 -38.9059 857.888L-80.0226 813.735Z" fill="url(#paint1_linear_3_1752)"/>
</g>
<defs>
<linearGradient id="paint0_linear_3_1752" x1="303.999" y1="-436.197" x2="617.397" y2="94.136" gradientUnits="userSpaceOnUse">
<stop stop-color="#51009D"/>
<stop offset="1" stop-color="white" stop-opacity="0"/>
</linearGradient>
<linearGradient id="paint1_linear_3_1752" x1="-105.818" y1="1156.15" x2="552.763" y2="688.852" gradientUnits="userSpaceOnUse">
<stop stop-color="#51009D"/>
<stop offset="1" stop-color="white" stop-opacity="0"/>
</linearGradient>
<clipPath id="clip0_3_1752">
<rect width="685" height="896" fill="white"/>
</clipPath>
</defs>
</svg>
