<svg width="211" height="57" viewBox="0 0 211 57" fill="none" xmlns="http://www.w3.org/2000/svg">
<path d="M100.459 0.542725C92.3571 26.2374 85.3151 44.4418 85.3151 44.4418C85.3151 44.4418 78.3164 26.2374 70.2143 0.542725H56.7144C65.671 29.8522 76.6938 55.8183 76.6938 55.8183H94.0013C94.0013 55.8183 105.1 29.8088 113.959 0.542725H100.459Z" fill="white"/>
<path d="M154.08 43.3456H130.347V0.553711H117.918V55.8184H154.08V43.3456Z" fill="white"/>
<path d="M198.019 38.9165C195.531 41.5109 191.323 44.1162 184.736 44.1162C176.958 44.1162 171.55 40.3277 171.55 28.9187C171.55 18.3999 176.958 12.9939 185.612 12.9939C191.983 12.9939 195.867 15.4798 198.03 17.64L198.019 38.9165ZM199.101 55.8292H211V0.542769H201.059L199.555 5.97046C196.18 2.8224 191.107 0 183.438 0C169.613 0 158.558 9.20536 158.558 28.7233C158.558 49.6416 169.04 56.3611 181.458 56.3611C187.788 56.4681 193.911 54.0969 198.528 49.7502L199.101 55.8292Z" fill="white"/>
<path d="M39.4287 38.9165C36.9408 41.5109 32.7221 44.1162 26.1344 44.1162C18.3893 44.1162 12.9807 40.3277 12.9807 28.9404C12.9807 18.4541 18.3893 13.0264 27.043 13.0264C33.4035 13.0264 37.2977 15.5123 39.4612 17.6725L39.4287 38.9165ZM40.5105 55.8292H52.4094V0.542769H42.4467L40.9431 5.97045C37.5898 2.8224 32.5165 0 24.8796 0C11.0119 0 0 9.20535 0 28.7233C0 49.6416 10.4711 56.3611 22.9 56.3611C29.227 56.4698 35.3468 54.0982 39.9588 49.7502L40.5105 55.8292Z" fill="white"/>
</svg>
