<svg width="19" height="18" viewBox="0 0 19 18" fill="none" xmlns="http://www.w3.org/2000/svg">
<g id="icon">
<path id="arrow_back" d="M6.36641 9.74961L10.0414 13.4246C10.1914 13.5746 10.2633 13.7496 10.257 13.9496C10.2508 14.1496 10.1727 14.3246 10.0227 14.4746C9.87266 14.6121 9.69766 14.684 9.49766 14.6902C9.29766 14.6965 9.12266 14.6246 8.97266 14.4746L4.02266 9.52461C3.94766 9.44961 3.89453 9.36836 3.86328 9.28086C3.83203 9.19336 3.81641 9.09961 3.81641 8.99961C3.81641 8.89961 3.83203 8.80586 3.86328 8.71836C3.89453 8.63086 3.94766 8.54961 4.02266 8.47461L8.97266 3.52461C9.11016 3.38711 9.28203 3.31836 9.48828 3.31836C9.69453 3.31836 9.87266 3.38711 10.0227 3.52461C10.1727 3.67461 10.2477 3.85273 10.2477 4.05898C10.2477 4.26523 10.1727 4.44336 10.0227 4.59336L6.36641 8.24961H14.7477C14.9602 8.24961 15.1383 8.32148 15.282 8.46523C15.4258 8.60898 15.4977 8.78711 15.4977 8.99961C15.4977 9.21211 15.4258 9.39023 15.282 9.53398C15.1383 9.67773 14.9602 9.74961 14.7477 9.74961H6.36641Z" fill="#585959"/>
</g>
</svg>
