<svg width="50" height="50" viewBox="0 0 50 50" fill="none" xmlns="http://www.w3.org/2000/svg">
<g clip-path="url(#clip0_1885_24643)">
<path d="M45.333 23.418V26.585H38V23.418H45.333Z" fill="#323232" stroke="#C0C0C0"/>
<path d="M41.8027 38.4316C41.4859 38.8531 41.1687 39.2763 40.8525 39.6992C40.536 40.1226 40.2183 40.5446 39.9023 40.9648C38.0526 39.5811 35.843 37.9248 34.0361 36.585C34.6702 35.7412 35.3045 34.8876 35.9375 34.0332C37.7428 35.3877 39.9508 37.0461 41.8027 38.4316Z" fill="#323232" stroke="#C0C0C0"/>
<path d="M40.8525 10.2979C41.1686 10.7206 41.485 11.1441 41.8018 11.5654C39.9501 12.9645 37.7454 14.6108 35.9365 15.9658C35.6204 15.5453 35.3031 15.1229 34.9863 14.6992C34.67 14.2761 34.3521 13.8533 34.0352 13.4316C35.8424 12.0757 38.0502 10.4169 39.9023 9.03125C40.2185 9.45181 40.5358 9.87418 40.8525 10.2979Z" fill="#323232" stroke="#C0C0C0"/>
<path d="M8.33073 18.75C6.03906 18.75 4.16406 20.625 4.16406 22.9167V27.0833C4.16406 29.375 6.03906 31.25 8.33073 31.25H10.4141V39.5833H14.5807V31.25H16.6641L27.0807 37.5V12.5L16.6641 18.75H8.33073ZM18.8099 22.3125L22.9141 19.8542V30.1458L18.8099 27.6875L17.8099 27.0833H16.6641H8.33073V22.9167H16.6641H17.8099L18.8099 22.3125Z" fill="#323232"/>
<path d="M32.2891 24.9987C32.2891 22.2279 31.0807 19.7279 29.1641 18.0195V31.957C31.0807 30.2695 32.2891 27.7695 32.2891 24.9987Z" fill="#323232"/>
</g>
<defs>
<clipPath id="clip0_1885_24643">
<rect width="50" height="50" fill="white"/>
</clipPath>
</defs>
</svg>
