<svg width="25" height="24" viewBox="0 0 25 24" fill="none" xmlns="http://www.w3.org/2000/svg">
<path d="M18 22.9988V20.7284C18 19.5241 17.5522 18.3691 16.7552 17.5175C15.9582 16.6659 14.8772 16.1875 13.75 16.1875H5.25C4.12283 16.1875 3.04183 16.6659 2.2448 17.5175C1.44777 18.3691 1 19.5241 1 20.7284V22.9988" stroke="#1F2937" stroke-width="1.5" stroke-linecap="round" stroke-linejoin="round"/>
<path d="M9.65625 12.7062C12.0035 12.7062 13.9062 10.7573 13.9062 8.3531C13.9062 5.94895 12.0035 4 9.65625 4C7.30904 4 5.40625 5.94895 5.40625 8.3531C5.40625 10.7573 7.30904 12.7062 9.65625 12.7062Z" stroke="#1F2937" stroke-width="1.5" stroke-linecap="round" stroke-linejoin="round"/>
<path d="M23.5 23V3.57877C23.5 2.89484 23.2221 2.23892 22.7275 1.7553C22.2329 1.27169 21.5621 1 20.8626 1H3.63736C2.93789 1 2.26707 1.27169 1.77247 1.7553C1.27786 2.23892 1 2.89484 1 3.57877V12" stroke="#1F2937" stroke-width="1.5" stroke-linecap="round" stroke-linejoin="round"/>
</svg>
