<svg width="24" height="25" viewBox="0 0 24 25" fill="none" xmlns="http://www.w3.org/2000/svg">
<path d="M16.4561 0.537109C16.7289 0.321122 17.1149 0.321122 17.3877 0.537109L19.4619 2.17871L22.0088 0.499023C22.2391 0.347049 22.5344 0.334052 22.7773 0.464844C23.0202 0.595659 23.1719 0.849104 23.1719 1.125V21.29C23.1718 22.1277 22.8171 22.9207 22.2031 23.498C21.5906 24.0739 20.7694 24.3906 19.9219 24.3906H3.92188C3.07436 24.3906 2.25316 24.0739 1.64062 23.498C1.0266 22.9207 0.671934 22.1277 0.671875 21.29V1.125L0.678711 1.02246C0.711103 0.78742 0.853956 0.57926 1.06641 0.464844C1.3094 0.334052 1.60463 0.347049 1.83496 0.499023L4.38086 2.17871L6.45605 0.537109C6.72885 0.321122 7.1149 0.321122 7.3877 0.537109L9.42188 2.14746L11.4561 0.537109C11.7289 0.321122 12.1149 0.321122 12.3877 0.537109L14.4219 2.14746L16.4561 0.537109ZM14.8877 3.69238C14.6149 3.90831 14.2288 3.90831 13.9561 3.69238L11.9219 2.08105L9.8877 3.69238C9.61492 3.90831 9.22883 3.90831 8.95605 3.69238L6.92188 2.08105L4.8877 3.69238C4.63378 3.89338 4.27911 3.90879 4.00879 3.73047L2.17188 2.51758V21.29C2.17193 21.699 2.34451 22.1011 2.66797 22.4053C2.99311 22.7109 3.44337 22.8906 3.92188 22.8906H19.9219C20.4004 22.8906 20.8506 22.7109 21.1758 22.4053C21.4992 22.1011 21.6718 21.699 21.6719 21.29V2.51758L19.835 3.73047C19.5646 3.90879 19.21 3.89338 18.9561 3.69238L16.9219 2.08105L14.8877 3.69238Z" fill="#1F2937"/>
<path d="M13.6302 8.90516H11.9635M10.2969 15.833H11.9635M11.9635 8.90516H10.2969V12.3691H13.6302V15.833H11.9635M11.9635 8.90516V6.92578M11.9635 15.833V17.8124" stroke="#1F2937" stroke-width="1.5" stroke-linecap="round" stroke-linejoin="round"/>
</svg>
