<svg width="24" height="24" viewBox="0 0 24 24" fill="none" xmlns="http://www.w3.org/2000/svg">
<rect width="24" height="24" rx="12" fill="#0071CE" fill-opacity="0.06"/>
<path d="M14.3333 9.66669C15.2615 9.66669 16.1517 10.0354 16.8081 10.6918C17.4645 11.3482 17.8333 12.2384 17.8333 13.1667V17.25H15.4999V13.1667C15.4999 12.8573 15.377 12.5605 15.1582 12.3417C14.9394 12.1229 14.6427 12 14.3333 12C14.0238 12 13.7271 12.1229 13.5083 12.3417C13.2895 12.5605 13.1666 12.8573 13.1666 13.1667V17.25H10.8333V13.1667C10.8333 12.2384 11.202 11.3482 11.8584 10.6918C12.5148 10.0354 13.405 9.66669 14.3333 9.66669V9.66669Z" stroke="#0071CE" stroke-linecap="round" stroke-linejoin="round"/>
<path d="M8.50008 10.25H6.16675V17.25H8.50008V10.25Z" stroke="#0071CE" stroke-linecap="round" stroke-linejoin="round"/>
<path d="M7.33341 8.50002C7.97775 8.50002 8.50008 7.97769 8.50008 7.33335C8.50008 6.68902 7.97775 6.16669 7.33341 6.16669C6.68908 6.16669 6.16675 6.68902 6.16675 7.33335C6.16675 7.97769 6.68908 8.50002 7.33341 8.50002Z" stroke="#0071CE" stroke-linecap="round" stroke-linejoin="round"/>
</svg>
