<svg width="25" height="25" viewBox="0 0 25 25" fill="none" xmlns="http://www.w3.org/2000/svg">
<path d="M19.8984 15.375C20.3127 15.375 20.6484 15.7108 20.6484 16.125V19.125H23.625C24.0392 19.125 24.375 19.4608 24.375 19.875C24.375 20.2892 24.0392 20.625 23.625 20.625H20.6484V23.625C20.6484 24.0392 20.3127 24.375 19.8984 24.375C19.4842 24.375 19.1484 24.0392 19.1484 23.625V20.625H16.125C15.7108 20.625 15.375 20.2892 15.375 19.875C15.375 19.4608 15.7108 19.125 16.125 19.125H19.1484V16.125C19.1484 15.7108 19.4842 15.375 19.8984 15.375Z" fill="#1F2937"/>
<path d="M4.51172 7.5H18.0117M4.51172 12H14.25M4.51172 16.5H11.2617M11.2617 21.7074H3.01172C2.68615 21.7074 1.9361 21.4498 1.47768 20.9914C1.01926 20.533 0.761719 20.1483 0.761719 19.5C0.761719 19.5 0.75 5.25001 0.75 4.68151C0.75 4.11302 1.00754 3.41145 1.46596 2.95303C1.92438 2.49461 2.625 2.24994 3 2.25001C3.375 2.25007 19.125 2.24984 19.5 2.25025C19.875 2.25066 20.539 2.52187 21 2.98707C21.4954 3.48703 21.75 3.92209 21.75 4.62595C21.75 4.93026 21.7471 7.7114 21.75 11.25" stroke="#1F2937" stroke-width="1.5" stroke-linecap="round" stroke-linejoin="round"/>
</svg>
