<svg width="24" height="26" viewBox="0 0 24 26" fill="none" xmlns="http://www.w3.org/2000/svg">
<path d="M15.9375 0C16.9906 2.06947e-07 17.9091 0.783605 17.9922 1.84375H19.875C20.755 1.84375 21.6081 2.17114 22.2441 2.76758C22.8818 3.36561 23.25 4.18779 23.25 5.05566V22.2881C23.25 23.156 22.8818 23.9781 22.2441 24.5762C21.6081 25.1726 20.755 25.5 19.875 25.5H4.125C3.24497 25.5 2.39192 25.1726 1.75586 24.5762C1.1182 23.9781 0.750016 23.156 0.75 22.2881V5.05566C0.750035 4.18779 1.11817 3.36561 1.75586 2.76758C2.39193 2.17114 3.24495 1.84375 4.125 1.84375H6.00781C6.09087 0.783605 7.00943 0 8.0625 0H15.9375ZM4.125 3.34375C3.61277 3.34375 3.1307 3.53553 2.78223 3.8623C2.43544 4.18755 2.25003 4.61783 2.25 5.05566V22.2881C2.25002 22.7259 2.43543 23.1562 2.78223 23.4814C3.1307 23.8082 3.61276 24 4.125 24H19.875C20.3872 24 20.8693 23.8082 21.2178 23.4814C21.5646 23.1562 21.75 22.7259 21.75 22.2881V5.05566C21.75 4.61784 21.5646 4.18755 21.2178 3.8623C20.8693 3.53553 20.3872 3.34375 19.875 3.34375H18V4.5C18 5.63863 17.0418 6.50098 15.9375 6.50098H8.0625C6.95824 6.50098 6 5.63863 6 4.5V3.34375H4.125ZM18 18C18.4142 18 18.75 18.3358 18.75 18.75C18.75 19.1642 18.4142 19.5 18 19.5H6C5.58579 19.5 5.25 19.1642 5.25 18.75C5.25 18.3358 5.58579 18 6 18H18ZM18 12C18.4142 12 18.75 12.3358 18.75 12.75C18.75 13.1642 18.4142 13.5 18 13.5H6C5.58579 13.5 5.25 13.1642 5.25 12.75C5.25 12.3358 5.58579 12 6 12H18ZM8.0625 1.5C7.71707 1.5 7.50007 1.75782 7.5 2V4.5C7.5 4.74222 7.71701 5.00098 8.0625 5.00098H15.9375C16.283 5.00098 16.5 4.74222 16.5 4.5V2C16.4999 1.75782 16.2829 1.5 15.9375 1.5H8.0625Z" fill="#1F2937"/>
</svg>
