<svg width="26" height="26" viewBox="0 0 26 26" fill="none" xmlns="http://www.w3.org/2000/svg">
<path d="M13.5246 24.6016C15.8639 24.6016 18.143 23.7994 20.0355 22.3097C21.928 20.8202 23.3366 18.7199 24.0594 16.3097C24.7823 13.8997 24.7823 11.3035 24.0594 8.89335C23.3366 6.48324 21.928 4.3829 20.0355 2.89335C18.143 1.40382 15.8639 0.601562 13.5246 0.601562C11.1854 0.601562 8.90627 1.40382 7.0138 2.89337C5.12133 4.3829 3.71267 6.48324 2.98984 8.89337C2.26702 11.3035 2.26702 13.8997 2.98984 16.3097M4.60151 13.9349L3.06312 16.6016L0.601562 14.6015" stroke="#1F2937" stroke-width="1.2" stroke-linecap="round" stroke-linejoin="round"/>
<path d="M14.0664 5.62891C14.1007 5.62891 14.1343 5.63314 14.167 5.63867L14.1875 5.64062C14.2224 5.64788 14.2562 5.65857 14.2891 5.67188C14.2995 5.67605 14.3092 5.68178 14.3193 5.68652C14.3405 5.6965 14.361 5.70732 14.3809 5.71973C14.3935 5.72756 14.406 5.73542 14.418 5.74414C14.4345 5.75628 14.4495 5.77033 14.4648 5.78418C14.4755 5.79376 14.4871 5.80219 14.4971 5.8125C14.4986 5.8141 14.5004 5.81576 14.502 5.81738L18.6865 10.2617C18.6932 10.2688 18.6978 10.2777 18.7041 10.2852C18.7939 10.3899 18.8506 10.524 18.8506 10.6729C18.8506 10.6761 18.8497 10.6794 18.8496 10.6826V17.6572C18.8495 18.1417 18.6682 18.6138 18.3359 18.9668C18.0025 19.3208 17.5418 19.5273 17.0537 19.5273H9.88086C9.3928 19.5273 8.93211 19.3208 8.59863 18.9668C8.26633 18.6138 8.08602 18.1417 8.08594 17.6572V7.49805C8.08602 7.01368 8.26651 6.5424 8.59863 6.18945C8.93213 5.83521 9.39265 5.62895 9.88086 5.62891H14.0664ZM9.88086 6.82812C9.73509 6.82817 9.58746 6.8898 9.47266 7.01172C9.35675 7.13487 9.28523 7.30926 9.28516 7.49805V17.6572C9.28524 17.846 9.35674 18.0204 9.47266 18.1436C9.58744 18.2654 9.73513 18.3271 9.88086 18.3271H17.0537C17.1994 18.3271 17.3471 18.2654 17.4619 18.1436C17.5779 18.0204 17.6493 17.846 17.6494 17.6572V11.2734H14.0664C13.7352 11.2734 13.4669 11.0041 13.4668 10.6729V6.82812H9.88086ZM14.666 10.0732H16.8613L14.666 7.74121V10.0732Z" fill="#1F2937"/>
</svg>
