<svg width="25" height="25" viewBox="0 0 25 25" fill="none" xmlns="http://www.w3.org/2000/svg">
<path d="M21.901 1.50023C21.553 1.49986 6.93614 1.50007 6.58812 1.50001C6.2401 1.49995 5.58989 1.72629 5.16445 2.15037C4.73901 2.57446 4.5 3.22348 4.5 3.74939C4.5 4.2753 4.51088 17.458 4.51088 17.458C4.51088 18.0577 4.74989 18.4136 5.17533 18.8377C5.60077 19.2617 6.29685 19.5 6.599 19.5H21.9119C22.2221 19.5 22.9101 19.4297 23.3356 19.0056C23.761 18.5815 24 18.0063 24 17.4066C24 17.4066 23.9891 4.2753 23.9891 3.69799" stroke="#1F2937" stroke-width="1.5" stroke-linecap="round" stroke-linejoin="round"/>
<path d="M0.75 5.25V20.8611C0.75 21.5094 1.00754 22.1312 1.46596 22.5896C1.92438 23.048 2.54614 23.3056 3.19444 23.3056H20.3056" stroke="#1F2937" stroke-width="1.5" stroke-linecap="round" stroke-linejoin="round"/>
</svg>
