<svg width="26" height="24" viewBox="0 0 26 24" fill="none" xmlns="http://www.w3.org/2000/svg">
<path d="M17.7492 22.4985V20.0485C17.7492 18.7489 17.3015 17.5026 16.5045 16.5836C15.7075 15.6647 14.6265 15.1484 13.4994 15.1484H4.99981C3.87269 15.1484 2.79173 15.6647 1.99474 16.5836C1.19775 17.5026 0.75 18.7489 0.75 20.0485V22.4985" stroke="#1F2937" stroke-width="1.5" stroke-linecap="round" stroke-linejoin="round"/>
<path d="M9.34071 10.7472C11.7725 10.7472 13.7439 8.67716 13.7439 6.12361C13.7439 3.57006 11.7725 1.5 9.34071 1.5C6.90888 1.5 4.9375 3.57006 4.9375 6.12361C4.9375 8.67716 6.90888 10.7472 9.34071 10.7472Z" stroke="#1F2937" stroke-width="1.5" stroke-linecap="round" stroke-linejoin="round"/>
<path d="M24.7477 22.3086V19.9968C24.747 18.9723 24.4223 17.9772 23.8245 17.1675C23.2268 16.3578 22.3899 15.7795 21.4453 15.5234" stroke="#1F2937" stroke-width="1.5" stroke-linecap="round" stroke-linejoin="round"/>
<path d="M17.0391 1.65234C17.9862 1.90699 18.8257 2.4854 19.4252 3.2964C20.0247 4.10739 20.3501 5.10483 20.3501 6.13146C20.3501 7.1581 20.0247 8.15554 19.4252 8.96653C18.8257 9.77752 17.9862 10.3559 17.0391 10.6106" stroke="#1F2937" stroke-width="1.5" stroke-linecap="round" stroke-linejoin="round"/>
</svg>
