<svg width="27" height="26" viewBox="0 0 27 26" fill="none" xmlns="http://www.w3.org/2000/svg">
<path d="M11.2091 4.53455C11.96 4.35878 12.7288 4.27092 13.5 4.27273C21.1364 4.27273 25.5 13 25.5 13C24.8378 14.2388 24.0481 15.4052 23.1436 16.48M15.8127 15.3127C15.5131 15.6343 15.1518 15.8922 14.7503 16.071C14.3489 16.2499 13.9155 16.3461 13.4761 16.3539C13.0367 16.3616 12.6002 16.2808 12.1927 16.1162C11.7852 15.9516 11.415 15.7066 11.1042 15.3958C10.7934 15.085 10.5484 14.7148 10.3838 14.3073C10.2192 13.8998 10.1384 13.4633 10.1461 13.0239C10.1539 12.5845 10.2501 12.1511 10.429 11.7497C10.6078 11.3482 10.8657 10.9869 11.1873 10.6873M19.98 19.48C18.1152 20.9015 15.8445 21.6889 13.5 21.7273C5.86364 21.7273 1.5 13 1.5 13C2.85697 10.4712 4.73906 8.26176 7.02 6.52L19.98 19.48Z" stroke="#1F2937" stroke-width="1.5" stroke-linecap="round" stroke-linejoin="round"/>
<path d="M1.5 1L25.5 25" stroke="#1F2937" stroke-width="1.5" stroke-linecap="round" stroke-linejoin="round"/>
</svg>
