<svg width="14" height="14" viewBox="0 0 14 14" fill="none" xmlns="http://www.w3.org/2000/svg">
<g clip-path="url(#clip0_1378_17235)">
<path d="M9.91406 1.16797H4.08073C2.4699 1.16797 1.16406 2.4738 1.16406 4.08464V9.91797C1.16406 11.5288 2.4699 12.8346 4.08073 12.8346H9.91406C11.5249 12.8346 12.8307 11.5288 12.8307 9.91797V4.08464C12.8307 2.4738 11.5249 1.16797 9.91406 1.16797Z" stroke="#0071CE" stroke-linecap="round" stroke-linejoin="round"/>
<path d="M9.33674 6.6317C9.40873 7.11718 9.32581 7.61299 9.09977 8.04862C8.87373 8.48426 8.51608 8.83752 8.07769 9.05818C7.63931 9.27883 7.1425 9.35563 6.65795 9.27766C6.1734 9.19969 5.72577 8.97091 5.37873 8.62388C5.03169 8.27684 4.80292 7.82921 4.72495 7.34466C4.64698 6.86011 4.72378 6.3633 4.94443 5.92492C5.16509 5.48653 5.51835 5.12888 5.95398 4.90284C6.38962 4.6768 6.88543 4.59388 7.37091 4.66587C7.86611 4.7393 8.32457 4.97005 8.67856 5.32404C9.03256 5.67804 9.26331 6.13649 9.33674 6.6317Z" stroke="#0071CE" stroke-linecap="round" stroke-linejoin="round"/>
<path d="M10.2109 3.79297H10.2168" stroke="#0071CE" stroke-linecap="round" stroke-linejoin="round"/>
</g>
<defs>
<clipPath id="clip0_1378_17235">
<rect width="14" height="14" fill="white"/>
</clipPath>
</defs>
</svg>
