<svg width="16" height="11" viewBox="0 0 16 11" fill="none" xmlns="http://www.w3.org/2000/svg">
<path d="M14.4331 2.06533C14.3563 1.75835 14.1998 1.47708 13.9794 1.24994C13.7591 1.02279 13.4827 0.857817 13.1782 0.771669C12.0657 0.5 7.6155 0.5 7.6155 0.5C7.6155 0.5 3.16531 0.5 2.05276 0.797542C1.74827 0.88369 1.47189 1.04867 1.25156 1.27581C1.03123 1.50296 0.874748 1.78422 0.797912 2.0912C0.594299 3.22028 0.494701 4.36566 0.50037 5.51294C0.493112 6.66885 0.592716 7.82296 0.797912 8.96054C0.88262 9.25799 1.04261 9.52856 1.26243 9.74611C1.48225 9.96366 1.75446 10.1208 2.05276 10.2025C3.16531 10.5 7.6155 10.5 7.6155 10.5C7.6155 10.5 12.0657 10.5 13.1782 10.2025C13.4827 10.1163 13.7591 9.95133 13.9794 9.72419C14.1998 9.49704 14.3563 9.21578 14.4331 8.9088C14.6351 7.78822 14.7347 6.65157 14.7306 5.51294C14.7379 4.35702 14.6383 3.20291 14.4331 2.06533V2.06533Z" stroke="#0071CE" stroke-linecap="round" stroke-linejoin="round"/>
<path d="M6.15625 7.62871L9.87553 5.51357L6.15625 3.39844V7.62871Z" stroke="#0071CE" stroke-linecap="round" stroke-linejoin="round"/>
</svg>
